<svg width="15" height="17" viewBox="0 0 15 17" fill="none" xmlns="http://www.w3.org/2000/svg">
<path fill-rule="evenodd" clip-rule="evenodd" d="M12.6726 5.66361C12.6726 6.71022 12.9492 7.32711 13.5579 8.038C14.0192 8.56172 14.1667 9.234 14.1667 9.96335C14.1667 10.6919 13.9273 11.3835 13.4478 11.9449C12.82 12.6181 11.9346 13.0478 11.031 13.1225C9.72162 13.2341 8.41138 13.3281 7.08375 13.3281C5.75529 13.3281 4.44587 13.2719 3.13646 13.1225C2.23205 13.0478 1.34668 12.6181 0.719721 11.9449C0.240183 11.3835 0 10.6919 0 9.96335C0 9.234 0.148251 8.56172 0.60874 8.038C1.23653 7.32711 1.49493 6.71022 1.49493 5.66361V5.30859C1.49493 3.90695 1.84444 2.99043 2.56416 2.09322C3.63422 0.784747 5.34946 0 7.04648 0H7.12102C8.85448 0 10.6252 0.822516 11.677 2.18722C12.3595 3.06597 12.6726 3.94388 12.6726 5.30859V5.66361ZM4.64472 15.0507C4.64472 14.6311 5.02984 14.4389 5.38597 14.3566C5.80256 14.2685 8.34105 14.2685 8.75765 14.3566C9.11378 14.4389 9.4989 14.6311 9.4989 15.0507C9.4782 15.4502 9.24381 15.8044 8.91998 16.0293C8.50007 16.3567 8.00728 16.564 7.49213 16.6387C7.20722 16.6756 6.92728 16.6764 6.65232 16.6387C6.13634 16.564 5.64355 16.3567 5.22447 16.0285C4.89981 15.8044 4.66542 15.4502 4.64472 15.0507Z" fill="#808191"/>
</svg>
